{
	"asset":{
		"generator":"Khronos glTF Blender I/O v5.0.21",
		"version":"2.0"
	},
	"extensionsUsed":[
		"KHR_materials_specular"
	],
	"scene":0,
	"scenes":[
		{
			"name":"Scene",
			"nodes":[
				4
			]
		}
	],
	"nodes":[
		{
			"mesh":0,
			"name":"Prop_Stonewell_01_Prop_Stonewell_02_Mat_0",
			"translation":[
				3.0517578125e-05,
				-3.814697720372351e-06,
				3.051758176297881e-05
			]
		},
		{
			"children":[
				0
			],
			"name":"Prop_Stonewell_01",
			"scale":[
				0.009999999776482582,
				0.009999999776482582,
				0.009999999776482582
			]
		},
		{
			"children":[
				1
			],
			"name":"RootNode"
		},
		{
			"children":[
				2
			],
			"name":"bd163bff57a348ff94416fc523ca8e95.fbx",
			"rotation":[
				0.70710688829422,
				0,
				0,
				0.7071066498756409
			]
		},
		{
			"children":[
				3
			],
			"name":"Sketchfab_model",
			"rotation":[
				-0.70710688829422,
				0,
				0,
				0.7071066498756409
			]
		}
	],
	"materials":[
		{
			"doubleSided":true,
			"extensions":{
				"KHR_materials_specular":{
					"specularFactor":0
				}
			},
			"name":"Prop_Stonewell_02_Mat",
			"normalTexture":{
				"index":0
			},
			"pbrMetallicRoughness":{
				"baseColorTexture":{
					"index":1
				},
				"metallicRoughnessTexture":{
					"index":2
				},
				"roughnessFactor":0.6000000238418579
			}
		}
	],
	"meshes":[
		{
			"name":"Prop_Stonewell_01_Prop_Stonewell_02_Mat_0",
			"primitives":[
				{
					"attributes":{
						"POSITION":0,
						"NORMAL":1,
						"TEXCOORD_0":2
					},
					"indices":3,
					"material":0
				}
			]
		}
	],
	"textures":[
		{
			"sampler":0,
			"source":0
		},
		{
			"sampler":0,
			"source":1
		},
		{
			"sampler":0,
			"source":2
		}
	],
	"images":[
		{
			"mimeType":"image/png",
			"name":"Prop_Stonewell_02_Mat_normal",
			"uri":"Prop_Stonewell_02_Mat_normal.png"
		},
		{
			"mimeType":"image/png",
			"name":"Prop_Stonewell_02_Mat_baseColor",
			"uri":"Prop_Stonewell_02_Mat_baseColor.png"
		},
		{
			"mimeType":"image/png",
			"name":"Prop_Stonewell_02_Mat_metallicRoughness",
			"uri":"Prop_Stonewell_02_Mat_metallicRoughness.png"
		}
	],
	"accessors":[
		{
			"bufferView":0,
			"componentType":5126,
			"count":52493,
			"max":[
				161.5428466796875,
				50.29472351074219,
				162.36727905273438
			],
			"min":[
				-162.53604125976562,
				-50.09142303466797,
				-162.21835327148438
			],
			"type":"VEC3"
		},
		{
			"bufferView":1,
			"componentType":5126,
			"count":52493,
			"type":"VEC3"
		},
		{
			"bufferView":2,
			"componentType":5126,
			"count":52493,
			"type":"VEC2"
		},
		{
			"bufferView":3,
			"componentType":5123,
			"count":77208,
			"type":"SCALAR"
		}
	],
	"bufferViews":[
		{
			"buffer":0,
			"byteLength":629916,
			"byteOffset":0,
			"target":34962
		},
		{
			"buffer":0,
			"byteLength":629916,
			"byteOffset":629916,
			"target":34962
		},
		{
			"buffer":0,
			"byteLength":419944,
			"byteOffset":1259832,
			"target":34962
		},
		{
			"buffer":0,
			"byteLength":154416,
			"byteOffset":1679776,
			"target":34963
		}
	],
	"samplers":[
		{
			"magFilter":9729,
			"minFilter":9987
		}
	],
	"buffers":[
		{
			"byteLength":1834192,
			"uri":"scene.bin"
		}
	]
}
